<svg width="18" height="12" viewBox="0 0 18 12" fill="none" xmlns="http://www.w3.org/2000/svg">
<path d="M0 11.3653L3.60467 0.434448H5.54051L9.14518 11.3653H7.37622L5.60726 5.40756C5.42925 4.80678 5.25125 4.206 5.07324 3.60522C4.90635 2.99332 4.73947 2.38141 4.57259 1.76951H4.50584C4.35008 2.38141 4.1832 2.99332 4.00519 3.60522C3.8383 4.206 3.66586 4.80678 3.48785 5.40756L1.7022 11.3653H0ZM2.01928 8.22788V6.9095H7.09252V8.22788H2.01928Z" fill="#0E121B"/>
<path d="M13.3441 11.5655C12.8212 11.5655 12.3484 11.471 11.9256 11.2818C11.514 11.0816 11.1858 10.809 10.941 10.4641C10.7074 10.1081 10.5905 9.69088 10.5905 9.21248C10.5905 8.30019 11.0356 7.60485 11.9256 7.12645C12.8268 6.64805 14.3009 6.33097 16.348 6.17522C16.3369 5.84145 16.259 5.5355 16.1144 5.25736C15.9809 4.97922 15.7639 4.76228 15.4635 4.60652C15.1743 4.43964 14.7904 4.35619 14.312 4.35619C13.9783 4.35619 13.6501 4.4007 13.3274 4.4897C13.0048 4.56758 12.6933 4.67883 12.3929 4.82347C12.0925 4.9681 11.8088 5.11829 11.5418 5.27405L10.9243 4.15594C11.2247 3.97793 11.5696 3.79992 11.959 3.62191C12.3484 3.43278 12.7656 3.28258 13.2106 3.17133C13.6667 3.06007 14.1285 3.00444 14.5957 3.00444C15.3523 3.00444 15.9809 3.14351 16.4815 3.42165C16.9822 3.69979 17.3604 4.09474 17.6163 4.60652C17.8722 5.11829 18.0001 5.73576 18.0001 6.45892V11.3653H16.6484L16.5149 10.3139H16.4648C16.0309 10.6477 15.5414 10.9425 14.9962 11.1984C14.4511 11.4432 13.9004 11.5655 13.3441 11.5655ZM13.8114 10.2472C14.2453 10.2472 14.6736 10.1526 15.0964 9.96346C15.5191 9.77432 15.9364 9.50731 16.348 9.16242V7.22658C15.2799 7.30446 14.44 7.42684 13.8281 7.59372C13.2273 7.7606 12.8045 7.97199 12.5598 8.22788C12.315 8.47264 12.1926 8.7619 12.1926 9.09567C12.1926 9.36268 12.2649 9.58519 12.4096 9.7632C12.5653 9.93008 12.7656 10.0525 13.0103 10.1303C13.2551 10.2082 13.5221 10.2472 13.8114 10.2472Z" fill="#0E121B"/>
</svg>
