<svg width="18" height="12" viewBox="0 0 18 12" fill="none" xmlns="http://www.w3.org/2000/svg">
<path d="M1.80799 11.5507H0L4.06246 0.261841H6.0303L10.0928 11.5507H8.28477L5.09323 2.31236H5.00504L1.80799 11.5507ZM2.11116 7.12999H7.97609V8.56315H2.11116V7.12999Z" fill="#0E121B"/>
<path d="M13.8218 11.7381C13.2853 11.7381 12.8002 11.6389 12.3666 11.4405C11.933 11.2384 11.5894 10.9462 11.3358 10.5641C11.0859 10.1819 10.961 9.71335 10.961 9.15846C10.961 8.68074 11.0528 8.28754 11.2366 7.97886C11.4203 7.67018 11.6684 7.42581 11.9807 7.24574C12.2931 7.06568 12.6422 6.92971 13.028 6.83784C13.4139 6.74597 13.8071 6.67615 14.2076 6.62838C14.7148 6.56958 15.1263 6.52181 15.4424 6.48506C15.7584 6.44464 15.9881 6.38033 16.1314 6.29214C16.2747 6.20395 16.3464 6.06063 16.3464 5.86219V5.82361C16.3464 5.34221 16.2104 4.96922 15.9385 4.70464C15.6702 4.44005 15.2696 4.30776 14.7368 4.30776C14.1819 4.30776 13.7446 4.43087 13.4249 4.67708C13.1089 4.91961 12.8902 5.18971 12.769 5.48737L11.22 5.13459C11.4038 4.62012 11.672 4.20487 12.0248 3.88884C12.3813 3.56913 12.791 3.33762 13.254 3.19431C13.7171 3.04732 14.204 2.97382 14.7148 2.97382C15.0528 2.97382 15.4111 3.01424 15.7896 3.09509C16.1718 3.17226 16.5283 3.31558 16.859 3.52504C17.1934 3.7345 17.4672 4.03399 17.6803 4.42352C17.8934 4.80937 18 5.31098 18 5.92834V11.5507H16.3904V10.3932H16.3243C16.2177 10.6063 16.0579 10.8158 15.8447 11.0216C15.6316 11.2274 15.3578 11.3982 15.0234 11.5342C14.689 11.6702 14.2885 11.7381 13.8218 11.7381ZM14.1801 10.4152C14.6357 10.4152 15.0253 10.3252 15.3487 10.1451C15.6757 9.96507 15.9238 9.72989 16.0928 9.43958C16.2655 9.1456 16.3519 8.83141 16.3519 8.497V7.4056C16.2931 7.46439 16.1792 7.51951 16.0101 7.57096C15.8447 7.61873 15.6555 7.66099 15.4424 7.69774C15.2292 7.73081 15.0216 7.76205 14.8195 7.79145C14.6174 7.81717 14.4483 7.83922 14.3124 7.85759C13.9927 7.89801 13.7005 7.966 13.4359 8.06154C13.175 8.15709 12.9656 8.29489 12.8075 8.47495C12.6532 8.65134 12.576 8.88653 12.576 9.18051C12.576 9.58841 12.7267 9.89709 13.028 10.1066C13.3294 10.3123 13.7134 10.4152 14.1801 10.4152Z" fill="#0E121B"/>
</svg>
