<svg width="18" height="12" viewBox="0 0 18 12" fill="none" xmlns="http://www.w3.org/2000/svg">
<path d="M5.50149 0.316711L9.35885 10.2447C9.5064 10.6346 9.67503 10.8981 9.86473 11.0351C10.065 11.1721 10.2494 11.2459 10.418 11.2564V11.5726C10.1651 11.5515 9.86473 11.541 9.51694 11.541C9.17968 11.5305 8.83716 11.5252 8.48936 11.5252C8.04671 11.5252 7.63568 11.5305 7.25627 11.541C6.87686 11.541 6.57122 11.5515 6.33936 11.5726V11.2564C6.87686 11.2354 7.21411 11.1458 7.35112 10.9877C7.49867 10.8191 7.46705 10.466 7.25627 9.9285L4.41067 2.24539L4.66362 1.96083L2.03934 8.82188C1.84964 9.29615 1.73371 9.69137 1.69155 10.0075C1.65993 10.3237 1.68628 10.5714 1.77059 10.7506C1.86545 10.9297 2.02353 11.0562 2.24486 11.13C2.46618 11.2038 2.7402 11.2459 3.06692 11.2564V11.5726C2.75074 11.5515 2.4293 11.541 2.10258 11.541C1.7864 11.5305 1.48603 11.5252 1.20147 11.5252C0.948532 11.5252 0.721938 11.5305 0.521693 11.541C0.331986 11.541 0.158089 11.5515 0 11.5726V11.2564C0.221324 11.2037 0.442648 11.072 0.663972 10.8612C0.885297 10.6504 1.09608 10.2921 1.29633 9.78622L4.96398 0.316711C5.0483 0.316711 5.13788 0.316711 5.23273 0.316711C5.32759 0.316711 5.41717 0.316711 5.50149 0.316711ZM7.16142 7.01967V7.33585H2.45037L2.60846 7.01967H7.16142Z" fill="#0E121B"/>
<path d="M12.7198 11.6833C12.2772 11.6833 11.8978 11.599 11.5816 11.4303C11.2654 11.2617 11.0283 11.0299 10.8702 10.7348C10.7121 10.4397 10.6331 10.1024 10.6331 9.72299C10.6331 9.25926 10.7385 8.88512 10.9492 8.60056C11.16 8.30546 11.4288 8.06832 11.7555 7.88916C12.0928 7.70999 12.4458 7.56244 12.8147 7.44651C13.1941 7.32004 13.5472 7.20411 13.8739 7.09871C14.2111 6.98278 14.4852 6.85104 14.6959 6.70349C14.9173 6.55594 15.0279 6.36097 15.0279 6.11856V5.04356C15.0279 4.66415 14.9647 4.36378 14.8382 4.14246C14.7223 3.91059 14.5589 3.74724 14.3482 3.65238C14.1479 3.55753 13.9055 3.5101 13.6209 3.5101C13.3785 3.5101 13.1203 3.54699 12.8463 3.62076C12.5723 3.684 12.3562 3.81574 12.1981 4.01599C12.43 4.07922 12.6197 4.20569 12.7673 4.3954C12.9254 4.57457 13.0044 4.80116 13.0044 5.07518C13.0044 5.37028 12.9043 5.60214 12.704 5.77077C12.5143 5.9394 12.2719 6.02371 11.9768 6.02371C11.6501 6.02371 11.4077 5.92359 11.2496 5.72334C11.0915 5.51256 11.0125 5.27016 11.0125 4.99614C11.0125 4.71158 11.081 4.47971 11.218 4.30055C11.3655 4.12138 11.5553 3.95275 11.7871 3.79466C12.0401 3.62603 12.3615 3.48375 12.7515 3.36782C13.1519 3.25189 13.5946 3.19392 14.0794 3.19392C14.5326 3.19392 14.9225 3.24662 15.2493 3.35201C15.5865 3.44687 15.8658 3.60496 16.0871 3.82628C16.3506 4.06868 16.5245 4.37432 16.6088 4.74319C16.6931 5.10153 16.7353 5.53891 16.7353 6.05533V10.4186C16.7353 10.6821 16.7669 10.8718 16.8301 10.9877C16.9039 11.0931 17.0198 11.1458 17.1779 11.1458C17.2833 11.1458 17.3835 11.1194 17.4783 11.0667C17.5837 11.014 17.7049 10.935 17.8419 10.8296L18 11.0984C17.7787 11.2775 17.5521 11.4198 17.3202 11.5252C17.0989 11.6306 16.8143 11.6833 16.4665 11.6833C16.1293 11.6833 15.8553 11.6306 15.6445 11.5252C15.4337 11.4198 15.2756 11.267 15.1702 11.0667C15.0754 10.8665 15.0279 10.6188 15.0279 10.3237C14.7539 10.7664 14.4272 11.1036 14.0478 11.3355C13.6684 11.5674 13.2257 11.6833 12.7198 11.6833ZM13.4787 10.9245C13.7738 10.9245 14.0478 10.8401 14.3007 10.6715C14.5642 10.5029 14.8066 10.2499 15.0279 9.91269V6.76673C14.912 6.93536 14.7434 7.08291 14.522 7.20938C14.3007 7.32531 14.0636 7.44651 13.8106 7.57298C13.5577 7.69945 13.3153 7.847 13.0834 8.01563C12.8621 8.17372 12.6777 8.37923 12.5301 8.63217C12.3826 8.88512 12.3088 9.20656 12.3088 9.59652C12.3088 10.0075 12.4142 10.3343 12.625 10.5767C12.8358 10.8085 13.1203 10.9245 13.4787 10.9245Z" fill="#0E121B"/>
</svg>
